<svg width="24" height="29" viewBox="0 0 24 29" fill="none" xmlns="http://www.w3.org/2000/svg">
<path d="M4.29484 9.88221H19.7077V21.094C19.7077 22.1198 18.8842 22.9484 17.8783 22.9484H16.616V26.7685C16.616 27.7285 15.8467 28.5 14.8892 28.5C13.9318 28.5 13.1567 27.7257 13.1567 26.7685V22.9455H10.843V26.7657C10.843 27.7228 10.0679 28.4971 9.11047 28.4971C8.15304 28.4971 7.39793 27.7228 7.39793 26.7657L7.38368 22.9455H6.1413C5.11834 22.9455 4.29484 22.1198 4.29484 21.0912V9.88221ZM1.90981 9.5622C0.955236 9.5622 0.180176 10.3394 0.180176 11.2794V18.5197C0.180176 19.4797 0.955236 20.2511 1.90981 20.2511C2.86439 20.2511 3.62236 19.4768 3.62236 18.5197V11.2794C3.62236 10.3365 2.85299 9.5622 1.90981 9.5622ZM19.7562 9.27647H4.22645C4.22645 6.59924 5.82216 4.2763 8.19008 3.06483L6.99615 0.861896C6.92776 0.741892 6.96196 0.590458 7.07878 0.524741C7.19561 0.473311 7.34948 0.507598 7.41502 0.627602L8.62321 2.85054C9.64902 2.39338 10.7917 2.14194 11.9998 2.14194C13.208 2.14194 14.3478 2.39338 15.3765 2.84768L16.5847 0.624745C16.6531 0.504741 16.8041 0.473311 16.9209 0.521884C17.0406 0.590458 17.0719 0.741892 17.0035 0.859039L15.8096 3.06197C18.1604 4.27344 19.7562 6.59924 19.7562 9.27647ZM9.11047 5.80778C9.11047 5.45348 8.82552 5.15062 8.45794 5.15062C8.09035 5.15062 7.81965 5.45348 7.81965 5.80778C7.81965 6.16208 8.1046 6.46209 8.45794 6.46209C8.82552 6.46495 9.11047 6.16208 9.11047 5.80778ZM16.18 5.80778C16.18 5.45348 15.8951 5.15062 15.5418 5.15062C15.1884 5.15062 14.8892 5.45348 14.8892 5.80778C14.8892 6.16208 15.1742 6.46209 15.5418 6.46209C15.8951 6.46495 16.18 6.16208 16.18 5.80778ZM22.0899 9.5622C21.1496 9.5622 20.3773 10.3194 20.3773 11.2794V18.5197C20.3773 19.4797 21.1467 20.2511 22.0899 20.2511C23.0331 20.2511 23.8195 19.4768 23.8195 18.5197V11.2794C23.8195 10.3194 23.0473 9.5622 22.0899 9.5622Z" fill="#00AF43"/>
</svg>
