<svg width="22" height="22" viewBox="0 0 22 22" fill="none" xmlns="http://www.w3.org/2000/svg">
<path d="M1 3.5C1 2.39543 1.89543 1.5 3 1.5H19C20.1046 1.5 21 2.39543 21 3.5V4.31751C21 5.07739 20.7116 5.80895 20.1932 6.36447L14.5379 12.4237C14.1922 12.794 14 13.2817 14 13.7883V17.882C14 18.2607 13.786 18.607 13.4472 18.7764L9.44721 20.7764C8.78231 21.1088 8 20.6253 8 19.882V13.7883C8 13.2817 7.80776 12.794 7.46211 12.4237L1.80683 6.36446C1.28836 5.80895 1 5.07739 1 4.31751V3.5Z" stroke="white" stroke-width="1.5"/>
</svg>
