<svg width="44" height="35" viewBox="0 0 44 35" fill="none" xmlns="http://www.w3.org/2000/svg">
<path d="M3.59375 14.6797H40.4068V32.0457C40.4068 33.5493 39.187 34.7691 37.6834 34.7691H6.31714C4.81355 34.7691 3.59375 33.5493 3.59375 32.0457V14.6797Z" fill="#003DA5"/>
<path d="M41.8308 9.29297H2.16985C1.41643 9.29297 0.805664 9.90374 0.805664 10.6572V13.3108C0.805664 14.0643 1.41643 14.675 2.16985 14.675H41.8308C42.5842 14.675 43.195 14.0643 43.195 13.3108V10.6572C43.195 9.90374 42.5842 9.29297 41.8308 9.29297Z" fill="#FEDA00"/>
<path d="M22.0001 1.39844C20.4816 1.39844 19.2568 2.6282 19.2568 4.14174V9.2898H24.7484V4.14672C24.7484 2.6282 23.5187 1.40342 22.0051 1.40342L22.0001 1.39844Z" fill="#FEDA00"/>
<path d="M19.2571 5.34645L13.5614 1.47794C11.072 -0.214847 7.65652 1.12444 6.98439 4.06192C6.372 6.74051 8.40832 9.29462 11.1566 9.29462H19.2571V5.34645Z" fill="#F7ECC1"/>
<path d="M24.748 5.34752L30.4438 1.47403C32.9332 -0.218753 36.3486 1.12054 37.0207 4.05802C37.6331 6.7366 35.5968 9.29071 32.8485 9.29071H24.748V5.34254V5.34752Z" fill="#F7ECC1"/>
<path d="M29.8869 9.29297H14.1191V14.675H29.8869V9.29297Z" fill="#F9E895"/>
<path d="M25.3761 14.6797H18.6299V34.7691H25.3761V14.6797Z" fill="#0068C0"/>
<path d="M37.6839 29.0664H30.1709V32.0437H37.6839V29.0664Z" fill="#F7ECC1"/>
</svg>
