<svg width="26" height="26" viewBox="0 0 26 26" fill="none" xmlns="http://www.w3.org/2000/svg">
<g clip-path="url(#clip0_7444_1643)">
<path d="M19.413 5.8202C20.0309 6.43805 20.9247 6.61186 21.7022 6.34164C22.2214 6.16118 22.8518 6.13391 23.2405 6.52258L24.5944 7.8765C25.3147 8.59679 25.3147 9.77016 24.5944 10.4904L10.4908 24.5941C9.77047 25.3144 8.5971 25.3144 7.87681 24.5941L6.52762 23.2449C6.1371 22.8544 6.16695 22.2195 6.34605 21.6971C6.61039 20.926 6.43521 20.0357 5.82051 19.4127C5.20267 18.7948 4.3088 18.621 3.53134 18.8913C3.01214 19.0717 2.3817 19.099 1.99302 18.7103L1.39424 18.1115C0.673954 17.3912 0.673954 16.2295 1.40586 15.5092L15.5095 1.41716C16.2298 0.696878 17.4032 0.696878 18.1118 1.40555L18.7059 1.9996C19.0964 2.39013 19.0666 3.02499 18.8874 3.5474C18.6232 4.31777 18.7984 5.20557 19.413 5.8202Z" stroke="#333333" stroke-width="1.5"/>
<path d="M11.2572 10.7927L12.7093 11.2807C12.8255 11.3155 12.9533 11.3039 13.0579 11.2226L14.2893 10.3048C14.5333 10.1189 14.8934 10.2932 14.8934 10.6069L14.8702 12.1404C14.8702 12.2682 14.9283 12.3727 15.0328 12.454L16.2875 13.337C16.5431 13.5112 16.4734 13.9062 16.183 13.9992L14.7192 14.4523C14.603 14.4871 14.5101 14.58 14.4752 14.6962L14.0221 16.16C13.9292 16.4505 13.5342 16.5202 13.3599 16.2646L12.477 15.0099C12.4073 14.9053 12.2911 14.8472 12.1633 14.8472L10.6298 14.8589C10.3161 14.8589 10.1419 14.5103 10.3278 14.2664L11.2455 13.0349C11.3152 12.942 11.3385 12.8026 11.3036 12.6864L10.7808 11.2574C10.6879 10.967 10.9667 10.6882 11.2572 10.7927Z" stroke="#333333" stroke-width="1.5"/>
</g>
<defs>
<clipPath id="clip0_7444_1643">
<rect width="26" height="26" fill="white"/>
</clipPath>
</defs>
</svg>
