<svg width="52" height="52" viewBox="0 0 52 52" fill="none" xmlns="http://www.w3.org/2000/svg">
<rect width="52" height="52" rx="26" fill="#003DA5"/>
<g clip-path="url(#clip0_7346_90894)">
<path d="M32.413 18.8202C33.0309 19.438 33.9247 19.6119 34.7022 19.3416C35.2214 19.1612 35.8518 19.1339 36.2405 19.5226L37.5944 20.8765C38.3147 21.5968 38.3147 22.7702 37.5944 23.4904L23.4908 37.5941C22.7705 38.3144 21.5971 38.3144 20.8768 37.5941L19.5276 36.2449C19.1371 35.8544 19.167 35.2195 19.346 34.6971C19.6104 33.926 19.4352 33.0357 18.8205 32.4127C18.2027 31.7948 17.3088 31.621 16.5313 31.8913C16.0121 32.0717 15.3817 32.099 14.993 31.7103L14.3942 31.1115C13.674 30.3912 13.674 29.2295 14.4059 28.5092L28.5095 14.4172C29.2298 13.6969 30.4032 13.6969 31.1118 14.4055L31.7059 14.9996C32.0964 15.3901 32.0666 16.025 31.8874 16.5474C31.6232 17.3178 31.7984 18.2056 32.413 18.8202Z" stroke="white" stroke-width="1.5"/>
<path d="M24.2572 23.7927L25.7093 24.2807C25.8255 24.3155 25.9533 24.3039 26.0579 24.2226L27.2893 23.3048C27.5333 23.1189 27.8934 23.2932 27.8934 23.6069L27.8702 25.1404C27.8702 25.2682 27.9283 25.3727 28.0328 25.454L29.2875 26.337C29.5431 26.5112 29.4734 26.9062 29.183 26.9992L27.7192 27.4523C27.603 27.4871 27.5101 27.58 27.4752 27.6962L27.0221 29.16C26.9292 29.4505 26.5342 29.5202 26.3599 29.2646L25.477 28.0099C25.4073 27.9053 25.2911 27.8472 25.1633 27.8472L23.6298 27.8589C23.3161 27.8589 23.1419 27.5103 23.3278 27.2664L24.2455 26.0349C24.3152 25.942 24.3385 25.8026 24.3036 25.6864L23.7808 24.2574C23.6879 23.967 23.9667 23.6882 24.2572 23.7927Z" stroke="white" stroke-width="1.5"/>
</g>
<defs>
<clipPath id="clip0_7346_90894">
<rect width="26" height="26" fill="white" transform="translate(13 13)"/>
</clipPath>
</defs>
</svg>
