<svg width="22" height="22" viewBox="0 0 22 22" fill="none" xmlns="http://www.w3.org/2000/svg">
<path d="M1 9.81341C1 8.58922 1.56058 7.43244 2.52142 6.67388L8.49642 1.95677C9.94966 0.809482 12.0003 0.809479 13.4536 1.95677L19.4286 6.67388C20.3894 7.43244 20.95 8.58922 20.95 9.81341V17C20.95 19.2091 19.1591 21 16.95 21H15.125C14.5727 21 14.125 20.5523 14.125 20V16.7C14.125 15.5954 13.2296 14.7 12.125 14.7H9.825C8.72043 14.7 7.825 15.5954 7.825 16.7V20C7.825 20.5523 7.37729 21 6.825 21H5C2.79086 21 1 19.2091 1 17L1 9.81341Z" stroke="#333333" stroke-width="1.5"/>
</svg>
