<svg width="52" height="53" viewBox="0 0 52 53" fill="none" xmlns="http://www.w3.org/2000/svg">
<rect y="0.75" width="52" height="52" rx="26" fill="#003DA5"/>
<path d="M16 25.5634C16 24.3392 16.5606 23.1824 17.5214 22.4239L23.4964 17.7068C24.9497 16.5595 27.0003 16.5595 28.4536 17.7068L34.4286 22.4239C35.3894 23.1824 35.95 24.3392 35.95 25.5634V32.75C35.95 34.9591 34.1591 36.75 31.95 36.75H30.125C29.5727 36.75 29.125 36.3023 29.125 35.75V32.45C29.125 31.3454 28.2296 30.45 27.125 30.45H24.825C23.7204 30.45 22.825 31.3454 22.825 32.45V35.75C22.825 36.3023 22.3773 36.75 21.825 36.75H20C17.7909 36.75 16 34.9591 16 32.75L16 25.5634Z" stroke="white" stroke-width="1.5"/>
</svg>
