<svg width="32" height="41" viewBox="0 0 32 41" fill="none" xmlns="http://www.w3.org/2000/svg">
<path d="M29.415 40.2666H2.57981L0.5625 38.2493V13.3281H31.4372V38.2493C30.65 39.0366 30.2072 39.4794 29.4199 40.2666H29.415Z" fill="#ECEBFD"/>
<path d="M8.94123 10.2286H6.26952C4.78359 10.2286 3.57812 9.02309 3.57812 7.53716V2.74974C3.57812 1.63775 4.48346 0.732422 5.59544 0.732422H7.92765C9.03963 0.732422 9.94496 1.63775 9.94496 2.74974V5.10655H7.92765V2.74974H5.59544V7.53716C5.59544 7.90619 5.89558 8.21124 6.26952 8.21124H8.94123V10.2286Z" fill="#F9E895"/>
<path d="M18.1756 10.2286H15.5039C14.018 10.2286 12.8125 9.02309 12.8125 7.53716V2.74974C12.8125 1.63775 13.7178 0.732422 14.8298 0.732422H17.162C18.274 0.732422 19.1793 1.63775 19.1793 2.74974V5.10655H17.162V2.74974H14.8298V7.53716C14.8298 7.90619 15.13 8.21124 15.5039 8.21124H18.1756V10.2286Z" fill="#F9E895"/>
<path d="M27.408 10.2286H24.7363C23.2504 10.2286 22.0449 9.02309 22.0449 7.53716V2.74974C22.0449 1.63775 22.9503 0.732422 24.0622 0.732422H26.3944C27.5064 0.732422 28.4118 1.63775 28.4118 2.74974V5.10655H26.3944V2.74974H24.0622V7.53716C24.0622 7.90619 24.3624 8.21124 24.7363 8.21124H27.408V10.2286Z" fill="#F9E895"/>
<path d="M28.4162 5.10645H24.0617V7.53706C24.0617 7.90608 24.3619 8.21114 24.7358 8.21114H27.4075V10.2285H24.7358C23.2499 10.2285 22.0444 9.02299 22.0444 7.53706V5.10645H14.8313V7.53706C14.8313 7.90608 15.1314 8.21114 15.5054 8.21114H18.1771V10.2285H15.5054C14.0195 10.2285 12.814 9.02299 12.814 7.53706V5.10645H5.60086V7.53706C5.60086 7.90608 5.901 8.21114 6.27494 8.21114H8.94665V10.2285H6.27494C4.78902 10.2285 3.58355 9.02299 3.58355 7.53706V5.10645H0.5625V13.3282H31.4372V5.10645H28.4211H28.4162Z" fill="#003DA5"/>
<path d="M6.76698 16.0195H3.25391V19.7491H6.76698V16.0195Z" fill="#003DA5"/>
<path d="M6.76698 21.9629H3.25391V25.6925H6.76698V21.9629Z" fill="#003DA5"/>
<path d="M6.76698 27.9014H3.25391V31.6309H6.76698V27.9014Z" fill="#003DA5"/>
<path d="M6.76698 33.8457H3.25391V37.5753H6.76698V33.8457Z" fill="#003DA5"/>
<path d="M28.7416 16.0195H9.45898V19.7491H28.7416V16.0195Z" fill="#130682"/>
<path d="M28.7416 21.9639H9.45898V25.6934H28.7416V21.9639Z" fill="#130682"/>
<path d="M28.7416 27.9023H9.45898V31.6319H28.7416V27.9023Z" fill="#130682"/>
<path d="M28.7416 33.8457H9.45898V37.5753H28.7416V33.8457Z" fill="#130682"/>
</svg>
