<svg width="49" height="49" viewBox="0 0 49 49" fill="none" xmlns="http://www.w3.org/2000/svg">
<rect x="0.5" y="0.75" width="48" height="48" rx="24" fill="#F5F9FF"/>
<path d="M16.5 27.6351H15.75H16.5ZM19.2329 30.8334L19.3359 30.0905H19.3359L19.2329 30.8334ZM29.4193 30.8334L29.3163 30.0905H29.3162L29.4193 30.8334ZM16.9665 25.9372L16.3223 25.5531L16.9665 25.9372ZM18.9891 20.837C18.9891 17.8894 21.3786 15.5 24.3261 15.5V14C20.5501 14 17.4891 17.061 17.4891 20.837H18.9891ZM18.9891 22.9295V20.837H17.4891V22.9295H18.9891ZM17.25 27.6351C17.25 27.1537 17.3817 26.7052 17.6106 26.3214L16.3223 25.5531C15.9587 26.1628 15.75 26.8757 15.75 27.6351H17.25ZM19.3359 30.0905C18.1363 29.9242 17.25 28.8813 17.25 27.6351H15.75C15.75 29.5948 17.1541 31.3024 19.1299 31.5763L19.3359 30.0905ZM24.3261 30.522C22.8341 30.522 20.9065 30.3083 19.3359 30.0905L19.1299 31.5763C20.7127 31.7958 22.7254 32.022 24.3261 32.022V30.522ZM29.3162 30.0905C27.7457 30.3083 25.8181 30.522 24.3261 30.522V32.022C25.9268 32.022 27.9395 31.7958 29.5223 31.5763L29.3162 30.0905ZM31.4022 27.6351C31.4022 28.8813 30.5159 29.9242 29.3163 30.0905L29.5223 31.5763C31.4981 31.3024 32.9022 29.5948 32.9022 27.6351H31.4022ZM31.0416 26.3214C31.2705 26.7052 31.4022 27.1537 31.4022 27.6351H32.9022C32.9022 26.8757 32.6935 26.1628 32.3299 25.5531L31.0416 26.3214ZM29.6631 20.837V22.9295H31.1631V20.837H29.6631ZM24.3261 15.5C27.2736 15.5 29.6631 17.8894 29.6631 20.837H31.1631C31.1631 17.061 28.102 14 24.3261 14V15.5ZM32.3299 25.5531C32.021 25.0351 31.7404 24.6201 31.5091 24.1566C31.2876 23.7129 31.1631 23.317 31.1631 22.9295H29.6631C29.6631 23.6424 29.8931 24.2778 30.167 24.8266C30.4311 25.3556 30.7869 25.8943 31.0416 26.3214L32.3299 25.5531ZM17.4891 22.9295C17.4891 23.317 17.3646 23.7129 17.1431 24.1566C16.9118 24.6201 16.6312 25.0351 16.3223 25.5531L17.6106 26.3214C17.8653 25.8943 18.2211 25.3556 18.4852 24.8266C18.7591 24.2778 18.9891 23.6423 18.9891 22.9295H17.4891Z" fill="#333333"/>
<path d="M26.5 33.5859C26.0326 34.2888 25.2335 34.7521 24.3261 34.7521C23.4187 34.7521 22.6195 34.2888 22.1522 33.5859" stroke="#333333" stroke-width="1.5" stroke-linecap="round"/>
<circle cx="28.5" cy="17.75" r="7" fill="#F63440"/>
</svg>
