<svg width="24" height="25" viewBox="0 0 24 25" fill="none" xmlns="http://www.w3.org/2000/svg">
<rect y="0.5" width="24" height="24" rx="12" fill="#FFC800"/>
<path d="M14.555 18.5918C14.5561 18.6108 14.5561 18.6342 14.5528 18.6543C14.535 19.3533 13.9281 19.8133 13.1577 20.0198C11.8393 20.3738 10.0461 19.9874 9.9461 18.7917C9.94276 18.7716 9.94165 18.7492 9.94165 18.7291L14.555 18.5918Z" fill="white"/>
<path d="M14.8916 16.1756C14.8994 16.4245 14.7293 16.6389 14.4959 16.6959C14.4636 16.7037 14.428 16.7081 14.3925 16.7093L9.99364 16.8399C9.95807 16.841 9.92138 16.8388 9.88914 16.8332C9.65347 16.7908 9.47116 16.5864 9.46338 16.3375C9.45782 16.1543 9.54786 15.9913 9.69238 15.8942C9.76908 15.8395 9.86246 15.8071 9.96362 15.8038L14.3625 15.6731C14.4636 15.6698 14.5592 15.6966 14.6415 15.7468C14.7871 15.835 14.8861 15.9925 14.8916 16.1756Z" fill="white"/>
<path d="M14.9217 17.1906C14.9283 17.4005 14.8094 17.5836 14.6326 17.6707C14.5681 17.6986 14.497 17.7176 14.4225 17.7198L10.0237 17.8504C9.94809 17.8527 9.87917 17.8381 9.81358 17.8136C9.63127 17.7365 9.49898 17.5612 9.49342 17.3513C9.48564 17.099 9.65572 16.888 9.88917 16.831C9.92141 16.8232 9.95698 16.8188 9.99367 16.8176L14.3914 16.6892C14.427 16.6881 14.4636 16.6904 14.4959 16.6959C14.7316 16.7373 14.9139 16.9382 14.9217 17.1906Z" fill="white"/>
<path d="M14.9495 18.134C14.9573 18.383 14.7872 18.5974 14.5537 18.6543C14.5215 18.6621 14.4859 18.6666 14.4504 18.6677L10.0515 18.7983C10.0159 18.7994 9.97926 18.7972 9.94702 18.7916C9.71135 18.7492 9.52904 18.5449 9.52126 18.2959C9.51459 18.086 9.63687 17.8995 9.81362 17.8147C9.8781 17.7834 9.94591 17.7644 10.0204 17.7622L14.4192 17.6316C14.4937 17.6293 14.566 17.6439 14.6327 17.6707C14.8139 17.7477 14.9428 17.9241 14.9495 18.134Z" fill="white"/>
<path d="M14.8469 14.6769L9.41748 14.8384L9.44887 15.9031L14.8783 15.7416L14.8469 14.6769Z" fill="white"/>
<path d="M17.3949 10.1162C17.4505 11.9797 16.5623 13.6511 15.1627 14.666L9.10196 14.8469C7.64457 13.9169 6.66075 12.3001 6.60517 10.4367C6.51735 7.44441 8.86184 4.94565 11.8389 4.85633C12.5303 4.83623 13.1929 4.94677 13.8065 5.16784C15.8442 5.89469 17.3271 7.81733 17.3949 10.1162Z" fill="white"/>
<path d="M7.4659 11.0129C7.28581 11.0185 7.13574 10.8756 7.13018 10.6947C7.07459 8.8 7.95169 6.99906 9.47689 5.87919C9.62252 5.77201 9.82706 5.80439 9.93267 5.95065C10.0394 6.09691 10.0072 6.30124 9.86152 6.40842C8.50975 7.401 7.7327 8.9965 7.78161 10.6757C7.78717 10.8566 7.64599 11.0073 7.4659 11.0129Z" fill="#FFC800"/>
<path d="M13.142 11.2027C12.704 11.2273 12.3671 11.1502 12.1148 10.8075C12.5506 9.96225 11.9858 9.5123 11.7946 9.89638C11.6901 10.1063 11.7635 10.5105 11.9592 10.813C11.7301 11.1927 11.3733 11.3021 10.9053 11.2831C10.4139 10.3519 9.77474 10.4122 9.77252 10.7204C9.76696 10.9794 10.1672 11.3579 10.8241 11.4104C11.3277 12.4342 11.5856 14.2162 11.6579 14.7711L11.7913 14.7666C11.7235 14.234 11.4767 12.4912 10.9709 11.4182V11.4148C11.4278 11.4126 11.7835 11.3099 12.0403 10.9303C12.3716 11.215 12.4449 11.3545 13.083 11.3356V11.3389C12.6395 12.4398 12.4927 14.2084 12.4561 14.7465L12.5895 14.7421C12.6284 14.1871 12.7807 12.3795 13.2287 11.3244C13.8857 11.2552 14.2658 10.8577 14.2514 10.5953C14.2325 10.2693 13.5611 10.2782 13.142 11.2027ZM10.2194 10.707C10.4039 10.7773 10.5829 10.9682 10.7486 11.2719C9.92148 11.1681 9.62467 10.4625 10.2194 10.707ZM12.0303 10.6791C11.729 10.1398 11.9369 9.7155 12.0837 9.95332C12.1626 10.0851 12.1559 10.3932 12.0303 10.6791ZM13.2954 11.1848C13.6344 10.4971 14.1158 10.4345 14.1202 10.6031C14.1313 10.7673 13.8467 11.1 13.2954 11.1848Z" fill="#FFC800"/>
<path d="M14.9562 16.4302L9.41352 16.5955C9.32347 16.5977 9.24788 16.5274 9.24566 16.4369C9.24343 16.3465 9.31347 16.2706 9.40351 16.2683L14.9462 16.1031C15.0363 16.1008 15.1119 16.1712 15.1141 16.2616C15.1174 16.3521 15.0463 16.4269 14.9562 16.4302Z" fill="white"/>
<path d="M14.9829 17.3326L9.44013 17.4978C9.35008 17.5 9.27449 17.4297 9.27227 17.3393C9.27004 17.2488 9.34008 17.1729 9.43012 17.1707L14.9729 17.0054C15.0629 17.0032 15.1385 17.0735 15.1407 17.164C15.1441 17.2544 15.0729 17.3303 14.9829 17.3326Z" fill="white"/>
<path d="M15.0097 18.2344L9.46698 18.3997C9.37694 18.4019 9.30135 18.3316 9.29912 18.2411C9.2969 18.1507 9.36693 18.0748 9.45698 18.0725L14.9997 17.9073C15.0898 17.905 15.1653 17.9754 15.1676 18.0658C15.1698 18.1563 15.0998 18.2322 15.0097 18.2344Z" fill="white"/>
</svg>
