<svg width="20" height="21" viewBox="0 0 20 21" fill="none" xmlns="http://www.w3.org/2000/svg">
<g clip-path="url(#clip0_3501_50210)">
<path d="M14.6994 5.235C15.0847 5.62064 15.6166 5.77023 16.1176 5.68375C16.6596 5.59021 17.3016 5.54919 17.6903 5.93826L18.4933 6.74193C19.0207 7.26978 19.0207 8.12967 18.4933 8.65753L8.16627 18.9932C7.63886 19.5211 6.77969 19.5211 6.25228 18.9932L5.45283 18.1931C5.0627 17.8026 5.10592 17.1565 5.19661 16.612C5.27947 16.1145 5.12947 15.5844 4.74661 15.1961C4.36129 14.8104 3.82935 14.6609 3.32834 14.7473C2.78636 14.8409 2.1444 14.8819 1.75566 14.4928L1.50558 14.2425C0.978174 13.7147 0.978174 12.8633 1.51409 12.3355L11.8411 2.00829C12.3685 1.48044 13.2277 1.48044 13.7466 1.99977L13.9931 2.2465C14.3833 2.63696 14.3399 3.28306 14.2493 3.82752C14.1666 4.32409 14.3166 4.85194 14.6994 5.235Z" fill="white" stroke="#130682" stroke-width="1.5"/>
<path d="M9.54154 9.03283L8.49949 8.6827C8.29107 8.60767 8.091 8.80775 8.15769 9.01616L8.53283 10.0415C8.55784 10.1249 8.54117 10.2249 8.49115 10.2916L7.83257 11.1753C7.69919 11.3504 7.82424 11.6005 8.04932 11.6005L9.14973 11.5921C9.24143 11.5921 9.32479 11.6338 9.37481 11.7088L10.0084 12.6092C10.1334 12.7926 10.4169 12.7425 10.4836 12.5341L10.8087 11.4837C10.8337 11.4004 10.9004 11.3337 10.9837 11.3087L12.0341 10.9836C12.2425 10.9169 12.2926 10.6334 12.1092 10.5084L11.2088 9.87481C11.1338 9.81646 11.0921 9.74143 11.0921 9.64973L11.1088 8.54932C11.1088 8.32424 10.8504 8.19919 10.6753 8.33257L9.79163 8.99115C9.7166 9.0495 9.6249 9.05784 9.54154 9.03283Z" fill="#130682" stroke="#130682" stroke-width="1.5"/>
</g>
<defs>
<clipPath id="clip0_3501_50210">
<rect width="20" height="20" fill="white" transform="translate(0 0.5)"/>
</clipPath>
</defs>
</svg>
