<svg width="96" height="96" viewBox="0 0 96 96" fill="none" xmlns="http://www.w3.org/2000/svg">
<rect x="16" y="16" width="64" height="64" rx="32" fill="#003DA5"/>
<path fill-rule="evenodd" clip-rule="evenodd" d="M47.8261 38C44.4643 38 41.7391 40.7252 41.7391 44.087V46.1795C41.7391 47.2798 41.03 48.2422 40.4665 49.1872C40.1702 49.684 40 50.2647 40 50.8851C40 52.488 41.1452 53.8633 42.7329 54.0834C44.3096 54.3021 46.2797 54.522 47.8261 54.522C49.3724 54.522 51.3426 54.3021 52.9192 54.0834C54.507 53.8633 55.6522 52.488 55.6522 50.8851C55.6522 50.2647 55.482 49.684 55.1857 49.1872C54.6221 48.2422 53.913 47.2798 53.913 46.1795V44.087C53.913 40.7252 51.1878 38 47.8261 38Z" fill="white"/>
<path d="M40 50.8851H39.25H40ZM42.7329 54.0834L42.8359 53.3405H42.8359L42.7329 54.0834ZM52.9192 54.0834L52.8162 53.3405L52.9192 54.0834ZM40.4665 49.1872L39.8223 48.8031L40.4665 49.1872ZM42.4891 44.087C42.4891 41.1394 44.8786 38.75 47.8261 38.75V37.25C44.0501 37.25 40.9891 40.311 40.9891 44.087H42.4891ZM42.4891 46.1795V44.087H40.9891V46.1795H42.4891ZM40.75 50.8851C40.75 50.4037 40.8817 49.9552 41.1106 49.5714L39.8223 48.8031C39.4587 49.4128 39.25 50.1257 39.25 50.8851H40.75ZM42.8359 53.3405C41.6363 53.1742 40.75 52.1313 40.75 50.8851H39.25C39.25 52.8448 40.6541 54.5524 42.6299 54.8263L42.8359 53.3405ZM47.8261 53.772C46.3341 53.772 44.4065 53.5583 42.8359 53.3405L42.6299 54.8263C44.2127 55.0458 46.2254 55.272 47.8261 55.272V53.772ZM52.8162 53.3405C51.2456 53.5583 49.3181 53.772 47.8261 53.772V55.272C49.4268 55.272 51.4395 55.0458 53.0223 54.8263L52.8162 53.3405ZM54.9022 50.8851C54.9022 52.1313 54.0159 53.1742 52.8162 53.3405L53.0223 54.8263C54.998 54.5524 56.4022 52.8448 56.4022 50.8851H54.9022ZM54.5415 49.5714C54.7705 49.9552 54.9022 50.4037 54.9022 50.8851H56.4022C56.4022 50.1257 56.1935 49.4128 55.8298 48.8031L54.5415 49.5714ZM53.163 44.087V46.1795H54.663V44.087H53.163ZM47.8261 38.75C50.7736 38.75 53.163 41.1394 53.163 44.087H54.663C54.663 40.311 51.602 37.25 47.8261 37.25V38.75ZM55.8298 48.8031C55.521 48.2851 55.2404 47.8701 55.0091 47.4066C54.7876 46.9629 54.663 46.567 54.663 46.1795H53.163C53.163 46.8924 53.3931 47.5278 53.667 48.0766C53.9311 48.6056 54.2869 49.1443 54.5415 49.5714L55.8298 48.8031ZM40.9891 46.1795C40.9891 46.567 40.8646 46.9629 40.6431 47.4066C40.4117 47.8701 40.1312 48.2851 39.8223 48.8031L41.1106 49.5714C41.3653 49.1443 41.7211 48.6056 41.9852 48.0766C42.2591 47.5278 42.4891 46.8923 42.4891 46.1795H40.9891Z" fill="white"/>
<path d="M50 56.834C49.5326 57.5369 48.7335 58.0002 47.8261 58.0002C46.9187 58.0002 46.1195 57.5369 45.6522 56.834" stroke="white" stroke-width="1.5" stroke-linecap="round"/>
<rect x="8" y="8" width="80" height="80" rx="40" stroke="white" stroke-opacity="0.5" stroke-width="16"/>
</svg>
