<svg width="24" height="28" viewBox="0 0 24 28" fill="none" xmlns="http://www.w3.org/2000/svg">
<path d="M20.0051 14.8923C20.0051 12.4698 21.3374 10.3986 23.2284 9.52733C22.702 8.85885 21.9961 8.23036 21.0462 7.5733C19.8169 6.72199 17.0936 6.62486 15.3084 7.06766C13.9526 7.4019 12.7968 8.04753 12.1792 8.07609C11.6205 8.10466 10.4206 7.37904 9.05008 7.06766C7.39726 6.69056 5.59446 6.90196 4.35632 7.5733C0.756602 9.52733 0.180176 11.5242 0.180176 15.6494C0.180176 20.403 1.95357 24.4339 5.91797 27.2621C6.78849 27.882 8.35307 28.2477 9.57062 27.7678C10.6176 27.3535 11.1764 26.8479 12.1792 26.7593C13.6438 26.6308 14.3261 27.1079 15.032 27.5335C15.6731 27.9192 17.1524 28.2306 17.917 27.7706C20.5962 26.1594 22.7049 23.5255 23.8195 20.4859C21.6197 19.8003 20.0051 17.5577 20.0051 14.8923V14.8923ZM16.873 4.03949C17.9376 2.41684 17.9406 -0.00854764 17.917 2.26505e-05C17.4759 0.142861 15.9878 -0.194237 13.7438 1.51411C12.9615 2.11117 11.9998 3.57955 11.6558 4.54228C11.394 5.27361 11.1381 7.0648 11.1323 7.06766C11.1058 7.07051 12.8527 6.97624 13.7409 6.56201C14.6526 6.13921 16.1848 5.09078 16.873 4.03949V4.03949Z" fill="#333333"/>
</svg>
