<svg width="30" height="29" viewBox="0 0 30 29" fill="none" xmlns="http://www.w3.org/2000/svg">
<path fill-rule="evenodd" clip-rule="evenodd" d="M28.9322 22.4459C28.597 21.447 27.4927 20.4036 26.4742 20.1245L22.7154 19.0976C21.6969 18.8218 20.2442 19.1933 19.4964 19.9429L18.1378 21.3034C13.1971 19.966 9.31946 16.0876 7.98565 11.1459L9.34422 9.78546C10.0887 9.04082 10.4618 7.58787 10.1845 6.56585L9.16099 2.80633C8.88366 1.78762 7.83543 0.683042 6.83672 0.347873C5.59534 -0.0665486 4.21696 -0.0335269 3.2298 0.955471L1.19441 2.99126C0.692583 3.39082 0.588586 4.03474 0.598491 4.38807C0.530809 10.8521 3.06308 17.075 7.63073 21.6485C12.1868 26.2055 18.3887 28.7366 24.8284 28.6804C25.3748 28.6623 25.9278 28.4542 26.2909 28.091L28.3263 26.0552C29.3184 25.0679 29.3399 23.6876 28.9322 22.4459Z" fill="white"/>
</svg>
