<svg width="52" height="52" viewBox="0 0 52 52" fill="none" xmlns="http://www.w3.org/2000/svg">
<rect width="52" height="52" rx="26" fill="#003DA5"/>
<circle cx="4.91429" cy="4.91429" r="4.91429" transform="matrix(-1 0 0 1 30.9141 15)" stroke="white" stroke-width="1.5"/>
<path d="M17.3999 32.1197C17.3999 31.0627 18.0644 30.1198 19.0598 29.7642V29.7642C23.5477 28.1614 28.4521 28.1614 32.94 29.7642V29.7642C33.9354 30.1198 34.5999 31.0627 34.5999 32.1197V34.1939C34.5999 35.411 33.5219 36.3459 32.3171 36.1738L29.8183 35.8168C27.2856 35.455 24.7143 35.455 22.1815 35.8168L19.6827 36.1738C18.4779 36.3459 17.3999 35.411 17.3999 34.1939V32.1197Z" stroke="white" stroke-width="1.5"/>
</svg>
