<svg width="71" height="70" viewBox="0 0 71 70" fill="none" xmlns="http://www.w3.org/2000/svg">
<path d="M0.638304 0.0078125H17.475V16.8446H0.638304V0.0078125ZM19.8717 0.0078125H22.2683V2.40443H24.6649V7.2178H22.2683V4.82119H19.8717V0.0078125ZM24.685 0.0078125H27.0816V2.40443H24.685V0.0078125ZM29.4984 0.0078125H31.895V4.82119H34.2916V2.42457H36.6883V0.0279516H41.5016V2.42457H39.105V7.23794H31.895V9.63456H29.4984V7.23794H27.1018V2.42457H29.4984V0.0279516V0.0078125ZM46.3351 0.0078125H51.1485V7.2178H48.7519V2.40443H46.3553V0.0078125H46.3351ZM53.5451 0.0078125H70.3819V16.8446H53.5451V0.0078125ZM3.03492 2.40443V14.4278H15.0583V2.40443H3.03492ZM43.9184 2.40443H46.315V4.80105H43.9184V2.40443ZM55.9417 2.40443V14.4278H67.9651V2.40443H55.9417ZM5.43154 4.80105H12.6415V12.011H5.43154V4.80105ZM58.3384 4.80105H65.5483V12.011H58.3384V4.80105ZM19.8515 7.19766H22.2481V9.59428H19.8515V7.19766ZM39.0849 7.19766H43.8982V9.59428H39.0849V7.19766ZM46.2949 7.19766H48.6915V9.59428H51.0881V16.8043H48.6915V14.4077H46.2949V16.8043H43.8982V14.4077H41.5016V12.011H46.315V7.19766H46.2949ZM22.2481 9.59428H24.6448V11.9909H22.2481V9.59428ZM31.8749 9.59428H34.2715V11.9909H31.8749V9.59428ZM27.0615 11.9909H31.8749V16.8043H29.4783V14.4077H27.0816V12.011L27.0615 11.9909ZM34.2715 11.9909H36.6681V21.6176H29.4581V19.221H31.8547V16.8244H34.2514V12.011L34.2715 11.9909ZM19.8314 14.3875H22.228V19.2009H19.8314V14.3875ZM24.6448 14.3875H27.0414V16.7841H24.6448V14.3875ZM39.0849 14.3875H41.4815V16.7841H39.0849V14.3875ZM27.0615 16.7841H29.4581V19.1807H27.0615V16.7841ZM41.5016 16.7841H43.8982V21.5975H51.1082V23.9941H46.2949V28.8075H43.8982V23.9941H39.0849V28.8075H31.8749V31.2041H29.4783V23.9941H31.8749V26.3907H34.2715V23.9941H36.6681V21.5975H39.0647V19.2009H41.4613V16.8043L41.5016 16.7841ZM0.618164 19.1807H3.01478V21.5774H0.618164V19.1807ZM5.43154 19.1807H10.2449V21.5774H5.43154V19.1807ZM12.6415 19.1807H19.8515V21.5774H12.6415V19.1807ZM53.525 19.1807H55.9216V21.5774H60.735V23.974H53.525V19.1606V19.1807ZM60.735 19.1807H63.1316V21.5774H60.735V19.1807ZM65.5483 19.1807H70.3617V23.9941H67.9651V21.5975H65.5685V19.2009L65.5483 19.1807ZM27.0615 21.5774H29.4581V23.974H27.0615V21.5774ZM3.01478 23.974H10.2248V28.7874H7.82815V26.3907H3.01478V23.9941V23.974ZM12.6415 23.974H24.6649V26.3706H22.2683V28.7672H19.8717V31.1638H22.2683V35.9772H19.8717V33.5806H17.475V31.184H15.0784V28.7874H17.475V26.3907H15.0784V28.7874H12.6818V23.974H12.6415ZM51.1284 23.974H53.525V26.3706H51.1284V23.974ZM63.1517 23.974H67.9651V26.3706H63.1517V23.974ZM24.6649 26.3706H27.0615V33.5806H29.4581V35.9772H34.2715V38.3738H29.4581V40.7704H34.2715V43.1671H27.0615V45.5637H24.6649V40.7503H15.0381V38.3537H17.4348V35.9571H19.8314V38.3537H27.0414V35.9571H24.6448V31.1437H22.2481V28.7471H24.6448V26.3505L24.6649 26.3706ZM48.7116 26.3706H51.1082V28.7672H48.7116V26.3706ZM53.525 26.3706H58.3384V28.7672H53.525V26.3706ZM67.9651 26.3706H70.3617V28.7672H67.9651V26.3706ZM0.618164 28.7672H5.43154V31.1638H7.82815V33.5604H12.6415V31.1638H15.0381V33.5604H17.4348V35.9571H15.0381V38.3537H10.2248V35.9571H7.82815V38.3537H5.43154V43.1671H3.03492V35.9571H5.43154V33.5604H0.618164V28.7471V28.7672ZM39.105 28.7672H43.9184V35.9772H41.5218V31.1638H39.1251V28.7672H39.105ZM46.315 28.7672H48.7116V33.5806H53.525V35.9772H60.735V38.3738H63.1316V40.7704H65.5282V35.9571H63.1316V31.1437H60.735V28.7471H65.5483V31.1437H70.3617V35.9571H67.9651V43.1671H65.5685V50.377H70.3819V52.7737H67.9853V55.1703H70.3819V59.9837H67.9853V57.587H65.5886V52.7737H63.192V57.587H60.7954V59.9837H63.192V62.3803H58.3786V64.7769H55.982V59.9635H53.5854V64.7769H51.1888V59.9635H48.7922V57.5669H43.9788V50.3569H41.5822V47.9603H39.1856V52.7737H34.3722V55.1703H31.9756V57.5669H24.7656V59.9635H22.369V57.5669H19.9724V50.3569H22.369V47.9603H17.5556V45.5637H24.7656V47.9603H27.1622V50.3569H29.5588V52.7535H31.9554V50.3569H29.5588V47.9603H34.3722V50.3569H36.7688V45.5435H43.9788V43.1469H46.3754V45.5435H48.772V47.9401H46.3754V52.7535H48.772V47.9401H51.1687V45.5435H53.5653V47.9401H63.192V43.1268H60.7954V40.7302H58.3988V38.3335H53.5854V40.7302H51.1888V43.1268H48.7922V38.3134H51.1888V35.9168H48.7922V38.3134H46.3956V40.71H43.9989V35.8966H46.3956V28.6867L46.315 28.7672ZM51.1284 28.7672H53.525V31.1638H51.1284V28.7672ZM31.895 31.1638H34.2916V33.5604H31.895V31.1638ZM53.5451 31.1638H55.9417V33.5604H53.5451V31.1638ZM34.3118 33.5604H36.7084V35.9571H34.3118V33.5604ZM36.7084 35.9571H39.105V38.3537H36.7084V35.9571ZM10.2449 40.7704H12.6415V50.3972H10.2449V45.5838H7.84829V43.1872H10.2449V40.7906V40.7704ZM41.5218 40.7704H43.9184V43.1671H41.5218V40.7704ZM55.9619 40.7704H58.3585V45.5838H53.5451V43.1872H55.9417V40.7906L55.9619 40.7704ZM0.638304 43.1671H3.03492V45.5637H0.638304V43.1671ZM15.0784 43.1671H17.475V45.5637H15.0784V43.1671ZM5.45168 45.5637H7.84829V47.9603H5.45168V45.5637ZM3.05506 47.9603H5.45168V50.3569H3.05506V47.9603ZM15.0784 47.9603H17.475V50.3569H15.0784V47.9603ZM51.1485 50.3569V57.5669H58.3585V50.3569H51.1485ZM0.638304 52.7535H17.475V69.5903H0.638304V52.7535ZM22.2884 52.7535V55.1501H24.685V52.7535H22.2884ZM39.1251 52.7535H41.5218V57.5669H39.1251V52.7535ZM53.5653 52.7535H55.9619V55.1501H53.5653V52.7535ZM3.05506 55.1501V67.1735H15.0784V55.1501H3.05506ZM5.45168 57.5468H12.6617V64.7568H5.45168V57.5468ZM34.3118 57.5468H39.1251V59.9434H36.7285V62.34H39.1251V59.9434H41.5218V57.5468H43.9184V64.7568H41.5218V67.1534H39.1251V64.7568H34.3118V67.1534H39.1251V69.55H19.8918V67.1534H24.7052V62.34H29.5185V64.7366H27.1219V67.1332H31.9353V62.3199H34.3319V57.5065L34.3118 57.5468ZM63.1719 57.5468H65.5685V59.9434H63.1719V57.5468ZM19.8717 59.9434H22.2683V64.7568H19.8717V59.9434ZM46.3351 59.9434H48.7318V64.7568H46.3351V59.9434ZM65.5685 59.9434H67.9651V62.34H65.5685V59.9434ZM63.1719 62.34H65.5685V64.7366H63.1719V62.34ZM67.9853 62.34H70.3819V64.7366H67.9853V62.34ZM48.7519 64.7366H51.1485V69.55H46.3351V67.1534H48.7318V64.7568L48.7519 64.7366ZM58.3786 64.7366H63.192V69.55H60.7954V67.1534H58.3988V64.7568L58.3786 64.7366ZM65.5886 64.7366H67.9853V69.55H65.5886V64.7366ZM41.5419 67.1332H43.9385V69.5298H41.5419V67.1332ZM53.5653 67.1332H58.3786V69.5298H53.5653V67.1332Z" fill="#003DA5"/>
</svg>
