<svg width="66" height="67" viewBox="0 0 66 67" fill="none" xmlns="http://www.w3.org/2000/svg">
<g clip-path="url(#clip0_7323_38297)">
<path d="M51.4526 32.7167C52.0886 31.6586 52.0817 30.3319 51.4286 29.2812L44.4669 18.018C43.7331 16.8318 42.4779 16.0772 41.0861 15.9857L27.8733 15.1213C26.639 15.0375 25.464 15.6537 24.828 16.7118L8.71499 43.5162C8.71499 43.5162 8.72419 43.5527 8.72787 43.5674C8.64464 43.6539 8.57242 43.7533 8.50662 43.8628C8.2489 44.2915 8.1689 44.8084 8.2903 45.2912L8.8908 47.6639C9.00945 48.1512 9.32029 48.5678 9.75091 48.8267L30.1637 61.0975C30.5943 61.3564 31.1081 61.4354 31.5941 61.3116L33.9712 60.7289C34.4545 60.6096 34.8735 60.2964 35.1312 59.8677C35.197 59.7582 35.2509 59.6478 35.2883 59.5337C35.303 59.5301 35.325 59.5247 35.3396 59.5211L51.4526 32.7167ZM41.6189 25.0483L36.305 21.8539C35.5354 21.3913 35.1846 20.398 35.6131 19.6125C36.0617 18.7832 37.1052 18.5102 37.9023 18.9893L43.2574 22.2085C43.8759 22.5802 44.2447 23.3049 44.0716 24.008C43.7908 25.1493 42.5397 25.6018 41.6189 25.0483Z" fill="#F7ECC1"/>
<path d="M12.1603 43.4579C11.9519 43.8045 11.8865 44.2246 11.9858 44.6196L12.4695 46.5434C12.5688 46.9384 12.821 47.2762 13.1737 47.4883L29.7431 57.4487C30.0912 57.658 30.5125 57.7249 30.9079 57.6273L32.8338 57.1521C33.2292 57.0545 33.5668 56.8041 33.7779 56.4529C34.2138 55.7278 33.9766 54.7842 33.2482 54.3463L14.2646 42.9347C13.5363 42.4968 12.5916 42.73 12.1557 43.4551L12.1603 43.4579Z" fill="#FEDA00"/>
<path d="M41.2357 35.553L42.4228 33.5782C42.5078 33.4368 42.46 33.2466 42.318 33.1612L36.775 29.8292L37.9759 27.8315C38.0609 27.6901 38.013 27.4999 37.871 27.4146L35.8875 26.2222C35.7455 26.1368 35.5551 26.1838 35.4701 26.3252L34.2692 28.3228L33.0644 27.5986C30.5266 26.073 27.2341 26.8817 25.7125 29.4129L23.5794 32.9613C23.4944 33.1027 23.5422 33.2929 23.6843 33.3782L29.2272 36.7103L27.1874 40.1036L21.6444 36.7716C21.5024 36.6862 21.312 36.7332 21.227 36.8746L20.0399 38.8494C19.9549 38.9908 20.0027 39.181 20.1447 39.2664L25.4266 42.4415C25.5686 42.5268 25.6164 42.717 25.5314 42.8584L24.4868 44.5961C24.4018 44.7375 24.4497 44.9277 24.5917 45.013L26.5752 46.2054C26.7172 46.2908 26.9076 46.2438 26.9926 46.1024L28.0372 44.3647C28.1222 44.2233 28.3126 44.1763 28.4546 44.2617L29.3983 44.829C31.9361 46.3546 35.2286 45.5459 36.7502 43.0146L38.8833 39.4663C38.9683 39.3249 38.9205 39.1347 38.7784 39.0493L33.2355 35.7173L35.2753 32.324L40.8183 35.656C40.9603 35.7414 41.1507 35.6944 41.2357 35.553ZM35.0341 40.1948L34.2444 41.5083C33.5535 42.6577 32.0597 43.0263 30.9053 42.3324L29.7005 41.6081L31.5841 38.4748C31.6691 38.3334 31.8594 38.2864 32.0015 38.3718L35.0386 40.1975L35.0341 40.1948ZM30.7297 34.2109L27.6925 32.3852C27.5505 32.2998 27.5027 32.1096 27.5877 31.9683L28.221 30.9147C28.9119 29.7654 30.4057 29.3967 31.5601 30.0907L32.7649 30.8149L30.7251 34.2082L30.7297 34.2109Z" fill="#003DA5"/>
</g>
<path fill-rule="evenodd" clip-rule="evenodd" d="M47.2527 22.476C48.9878 21.1179 49.9299 18.8669 49.5076 16.5487C48.9011 13.2194 45.7106 11.0122 42.3814 11.6186C39.0521 12.2251 36.8449 15.4156 37.4513 18.7448C38.0307 21.9253 40.9683 24.0818 44.1322 23.7395C44.0964 23.2319 43.7546 22.5908 43.1414 22.1672C41.1325 22.0183 39.3987 20.533 39.0209 18.4589C38.5723 15.9965 40.2049 13.6367 42.6673 13.1882C45.1297 12.7397 47.4895 14.3722 47.938 16.8346C48.2387 18.4855 47.604 20.0903 46.4108 21.1039C46.696 21.5654 46.9793 22.0276 47.2527 22.476Z" fill="#130682"/>
<path d="M18.8516 12.3779L19.1101 13.3439" stroke="#333333" stroke-width="2" stroke-linecap="round"/>
<path d="M13.2695 22.5762L12.9401 22.3654" stroke="#333333" stroke-width="2" stroke-linecap="round"/>
<path d="M8.53906 31.8037L8.29952 31.7926" stroke="#333333" stroke-width="2" stroke-linecap="round"/>
<path d="M46.5703 55.583L46.3887 54.9561" stroke="#333333" stroke-width="2" stroke-linecap="round"/>
<path d="M52.2578 45.0801L52.3611 45.1926" stroke="#333333" stroke-width="2" stroke-linecap="round"/>
<path d="M56.3359 35.7773L56.8361 35.6851" stroke="#333333" stroke-width="2" stroke-linecap="round"/>
<defs>
<clipPath id="clip0_7323_38297">
<rect width="31.0649" height="44.77" fill="white" transform="translate(29.7109 8.58887) rotate(31.0115)"/>
</clipPath>
</defs>
</svg>
