<svg width="52" height="52" viewBox="0 0 52 52" fill="none" xmlns="http://www.w3.org/2000/svg">
<rect width="52" height="52" rx="26" fill="#003DA5"/>
<path d="M13.7144 24.1608C13.7144 21.4762 15.8906 19.3 18.5751 19.3V19.3C19.3529 19.3 20.0559 18.8365 20.3622 18.1216L20.9208 16.8182C21.3936 15.7152 22.4782 15 23.6783 15H26.0001H28.3219C29.522 15 30.6066 15.7152 31.0793 16.8182L31.6379 18.1216C31.9443 18.8365 32.6472 19.3 33.425 19.3V19.3C36.1095 19.3 38.2858 21.4762 38.2858 24.1608V31.5C38.2858 34.2614 36.0472 36.5 33.2858 36.5H18.7144C15.9529 36.5 13.7144 34.2614 13.7144 31.5V24.1608Z" stroke="white" stroke-width="1.5"/>
<circle cx="3.68571" cy="3.68571" r="3.68571" transform="matrix(-1 0 0 1 29.6855 22.9858)" stroke="white" stroke-width="1.5"/>
</svg>
