<svg width="28" height="24" viewBox="0 0 28 24" fill="none" xmlns="http://www.w3.org/2000/svg">
<path d="M1.71387 10.1608C1.71387 7.47624 3.89011 5.3 6.57465 5.3V5.3C7.35243 5.3 8.05537 4.83648 8.36176 4.12159L8.92033 2.81824C9.39307 1.71519 10.4777 1 11.6778 1H13.9996H16.3214C17.5215 1 18.6061 1.71519 19.0788 2.81824L19.6374 4.12159C19.9438 4.83648 20.6467 5.3 21.4245 5.3V5.3C24.109 5.3 26.2853 7.47625 26.2853 10.1608V17.5C26.2853 20.2614 24.0467 22.5 21.2853 22.5H6.71387C3.95245 22.5 1.71387 20.2614 1.71387 17.5V10.1608Z" stroke="#2D2C2B" stroke-width="1.5"/>
<circle cx="3.68571" cy="3.68571" r="3.68571" transform="matrix(-1 0 0 1 17.6855 8.98633)" stroke="#2D2C2B" stroke-width="1.5"/>
</svg>
