<svg width="44" height="35" viewBox="0 0 44 35" fill="none" xmlns="http://www.w3.org/2000/svg">
<path d="M0.805664 4.39844H43.195V31.6373C43.195 33.3301 41.8208 34.6993 40.133 34.6993H3.87259C2.17981 34.6993 0.810648 33.3251 0.810648 31.6373V4.39844H0.805664Z" fill="#003DA5"/>
<path d="M39.1124 11.1657H4.89324C3.30003 9.57246 2.40385 8.67628 0.805664 7.07809V4.39453H43.195V7.07809C41.6018 8.6713 40.7056 9.56748 39.1074 11.1657H39.1124Z" fill="#0068C0"/>
<path d="M36.1396 8.48006H7.86015C7.53156 8.48006 7.2627 8.21121 7.2627 7.88261C7.2627 7.55401 7.53156 7.28516 7.86015 7.28516H36.1396C36.4682 7.28516 36.7371 7.55401 36.7371 7.88261C36.7371 8.21121 36.4682 8.48006 36.1396 8.48006Z" fill="#130682"/>
<path d="M22.0012 34.7016C28.4987 34.7016 33.766 29.4343 33.766 22.9367C33.766 16.4392 28.4987 11.1719 22.0012 11.1719C15.5036 11.1719 10.2363 16.4392 10.2363 22.9367C10.2363 29.4343 15.5036 34.7016 22.0012 34.7016Z" fill="#ECEBFD"/>
<path d="M30.2806 26.5585C32.2822 21.9838 30.1961 16.6526 25.6214 14.6511C21.0466 12.6496 15.7154 14.7356 13.7139 19.3104C11.7124 23.8852 13.7984 29.2163 18.3732 31.2178C22.948 33.2194 28.2791 31.1333 30.2806 26.5585Z" fill="#7CD6F3"/>
<path d="M40.4724 29.2344H36.1309V31.9777H40.4724V29.2344Z" fill="#7CD6F3"/>
<path d="M3.5296 31.9844H7.87109V29.2411H3.5296V31.9844Z" fill="#7CD6F3"/>
<path d="M33.9595 0.65625H37.4944C38.4354 0.65625 39.1972 1.418 39.1972 2.35899V4.40029H32.2617V2.35899C32.2617 1.418 33.0235 0.65625 33.9645 0.65625H33.9595Z" fill="#ECEBFD"/>
<path d="M27.0239 0.65625H30.5589C31.4999 0.65625 32.2616 1.418 32.2616 2.35899V4.40029H25.3262V2.35899C25.3262 1.418 26.0879 0.65625 27.0289 0.65625H27.0239Z" fill="#130682"/>
</svg>
