<svg width="21" height="22" viewBox="0 0 21 22" fill="none" xmlns="http://www.w3.org/2000/svg">
<path fill-rule="evenodd" clip-rule="evenodd" d="M18.0378 1.2201C17.0731 0.259454 15.5097 0.260042 14.5457 1.22142L7.0903 8.65835C6.49401 9.25305 6.14344 10.0492 6.10796 10.8891L6.00182 13.4018C5.9535 14.546 6.87116 15.4998 8.02025 15.4999L10.4924 15.5C11.4 15.5 12.2692 15.1349 12.9029 14.4874L20.2984 6.90804C21.2425 5.94344 21.2326 4.40152 20.2761 3.44907L18.0378 1.2201ZM15.4985 2.17018C15.9366 1.73319 16.6473 1.73293 17.0858 2.16958L19.3241 4.39856C19.7588 4.83149 19.7634 5.53236 19.3342 5.97082L17.8489 7.48837L14.0046 3.66008L15.4985 2.17018ZM13.0526 4.60956L8.04304 9.60711C7.68526 9.96393 7.47492 10.4416 7.45363 10.9456L7.3475 13.4583C7.33139 13.8397 7.63728 14.1576 8.02031 14.1576L10.4924 14.1577C11.037 14.1578 11.5585 13.9387 11.9388 13.5502L16.9084 8.44931L13.0526 4.60956Z" fill="#0068C0"/>
<path d="M19 11.5V15.5C19 18.2614 16.7614 20.5 14 20.5H6C3.23858 20.5 1 18.2614 1 15.5V7.5C1 4.73858 3.23858 2.5 6 2.5H10" stroke="#0068C0" stroke-width="1.5" stroke-linecap="round"/>
</svg>
