<svg width="44" height="43" viewBox="0 0 44 43" fill="none" xmlns="http://www.w3.org/2000/svg">
<path d="M22.0003 0.554688C10.2952 0.554688 0.805664 10.0442 0.805664 21.7494C0.805664 33.4545 10.2952 42.944 22.0003 42.944C33.7054 42.944 43.195 33.4545 43.195 21.7494C43.195 10.0442 33.7054 0.554688 22.0003 0.554688ZM39.7397 24.6619C38.3506 33.2055 30.9372 39.7277 22.0003 39.7277C13.0634 39.7277 5.65002 33.2055 4.26094 24.6619C4.18626 24.1889 4.12651 23.706 4.08668 23.2231C4.04685 22.7352 4.02693 22.2472 4.02693 21.7494C4.02693 21.2515 4.04685 20.7635 4.08668 20.2756C4.12651 19.7927 4.18626 19.3098 4.26094 18.8368C5.65002 10.2932 13.0634 3.77099 22.0003 3.77099C30.9372 3.77099 38.3506 10.2932 39.7397 18.8368C39.8144 19.3098 39.8741 19.7927 39.914 20.2756C39.9538 20.7635 39.9737 21.2515 39.9737 21.7494C39.9737 22.2472 39.9538 22.7352 39.914 23.2231C39.8741 23.706 39.8144 24.1889 39.7397 24.6619Z" fill="#130682"/>
<path d="M4.08621 20.2773C4.04638 20.7653 4.02647 21.2532 4.02647 21.7511C4.02647 22.249 4.04638 22.7369 4.08621 23.2248C4.0414 22.7369 4.02148 22.249 4.02148 21.7511C4.02148 21.2532 4.0414 20.7653 4.08621 20.2773Z" fill="#130682"/>
<path d="M4.26117 24.6615C4.18151 24.1885 4.12177 23.7056 4.08691 23.2227C4.12674 23.7056 4.18649 24.1885 4.26117 24.6615Z" fill="#130682"/>
<path d="M4.26117 18.8359C4.18649 19.3089 4.12674 19.7918 4.08691 20.2748C4.12177 19.7918 4.18151 19.3089 4.26117 18.8359Z" fill="#130682"/>
<path d="M39.7393 24.6615C39.8139 24.1885 39.8737 23.7056 39.9135 23.2227C39.8787 23.7056 39.8189 24.1885 39.7393 24.6615Z" fill="#130682"/>
<path d="M39.7393 18.8359C39.8189 19.3089 39.8787 19.7918 39.9135 20.2748C39.8737 19.7918 39.8139 19.3089 39.7393 18.8359Z" fill="#130682"/>
<path d="M39.9788 21.7511C39.9788 22.249 39.9589 22.7369 39.9141 23.2248C39.9539 22.7369 39.9738 22.249 39.9738 21.7511C39.9738 21.2532 39.9539 20.7653 39.9141 20.2773C39.9589 20.7653 39.9788 21.2532 39.9788 21.7511Z" fill="#130682"/>
<path d="M22.001 21.7588V21.7932H22.0402L22.0059 21.7539L22.001 21.7588Z" fill="#F0F6FF"/>
<path d="M22.0408 21.7926H39.9744C39.9744 21.7926 39.9744 21.7627 39.9744 21.7477C39.9744 21.2499 39.9544 20.7619 39.9146 20.274C39.8748 19.7911 39.815 19.3082 39.7404 18.8352C39.6756 18.4468 39.596 18.0585 39.5064 17.6801C39.4964 17.6353 39.4864 17.5905 39.4765 17.5506C38.6948 14.2746 37.012 11.352 34.7118 9.04688L22.001 21.7577L22.0358 21.7926H22.0408Z" fill="#F0F6FF"/>
<path d="M22.0059 21.7529L34.7167 9.04204C31.4655 5.78592 26.9697 3.76953 22.0059 3.76953V21.7529Z" fill="#003DA5"/>
<path d="M34.7068 34.459C31.4607 37.7151 26.9648 39.7265 22.001 39.7265V21.793H22.0408L34.7068 34.459Z" fill="#F0F6FF"/>
<path d="M39.9746 21.793C39.9746 22.2759 39.9547 22.7489 39.9148 23.2219C39.875 23.7048 39.8153 24.1877 39.7406 24.6607C39.6759 25.0491 39.5962 25.4374 39.5066 25.8158C39.4966 25.8606 39.4867 25.9054 39.4767 25.9453C38.6901 29.2263 37.0122 32.1538 34.707 34.459L22.041 21.793H39.9746Z" fill="#003DA5"/>
<path d="M22.001 21.7539V21.7598L22.0068 21.7539H22.001Z" fill="#F0F6FF"/>
<path d="M21.9658 21.792H22V21.7578L21.9658 21.792Z" fill="#F0F6FF"/>
<path d="M4.02734 21.794C4.02734 22.277 4.04726 22.75 4.08709 23.223C4.12692 23.7059 4.18667 24.1888 4.26135 24.6618C4.32607 25.0501 4.40573 25.4385 4.49535 25.8169C4.50531 25.8617 4.51526 25.9065 4.52522 25.9463C5.30689 29.2273 6.99469 32.1549 9.29987 34.46L21.9709 21.7891H4.03233L4.02734 21.794Z" fill="#F0F6FF"/>
<path d="M21.9659 21.793L9.29492 34.4639C12.5461 37.7151 17.0369 39.7315 22.0008 39.7315V21.7979H21.9659V21.793Z" fill="#003DA5"/>
<path d="M22.0009 3.76953C17.037 3.76953 12.5412 5.78592 9.29004 9.04204L22.0009 21.7529V3.76953Z" fill="#F0F6FF"/>
<path d="M22.0008 21.7588L9.29002 9.04297C6.98982 11.3481 5.30699 14.2757 4.52034 17.5517C4.51038 17.5965 4.50042 17.6364 4.49047 17.6812C4.40085 18.0645 4.32119 18.4479 4.25646 18.8362C4.18178 19.3092 4.12203 19.7922 4.0822 20.2751C4.04237 20.763 4.02246 21.2509 4.02246 21.7488C4.02246 21.7638 4.02246 21.7787 4.02246 21.7936H21.961L21.9959 21.7588H22.0008Z" fill="#003DA5"/>
<path d="M21.9999 24.8944C23.7322 24.8944 25.1365 23.4901 25.1365 21.7577C25.1365 20.0254 23.7322 18.6211 21.9999 18.6211C20.2676 18.6211 18.8633 20.0254 18.8633 21.7577C18.8633 23.4901 20.2676 24.8944 21.9999 24.8944Z" fill="#F0F6FF" stroke="#003DA5" stroke-miterlimit="10"/>
</svg>
